<svg width="640" height="640" viewBox="0 0 640 640" fill="none" xmlns="http://www.w3.org/2000/svg">
<path d="M496.742 0.620117H142.693C63.9201 0.620117 0.0625 64.4777 0.0625 143.25V497.3C0.0625 576.073 63.9201 639.93 142.693 639.93H496.742C575.515 639.93 639.372 576.073 639.372 497.3V143.25C639.372 64.4777 575.515 0.620117 496.742 0.620117Z" fill="#2E7BFA"/>
<path d="M335.442 490.91L365.842 443.02C367.012 441.17 369.042 440.04 371.242 440.02L432.822 439.34C437.702 439.28 440.772 434.05 438.432 429.76L402.292 363.76C401.152 361.68 398.982 360.39 396.612 360.39H325.832C323.272 360.39 320.952 358.88 319.912 356.53L300.052 311.61C298.162 307.33 301.292 302.52 305.972 302.52H438.142C440.452 302.52 442.592 303.75 443.752 305.76L550.782 491.13C553.272 495.45 550.162 500.84 545.172 500.84H340.922C335.822 500.84 332.722 495.21 335.452 490.9L335.442 490.91Z" fill="white"/>
<path d="M355.821 282.42L327.211 230.52C324.771 226.09 318.401 226.05 315.911 230.46L279.651 294.62C278.621 296.44 278.541 298.63 279.421 300.53L309.301 364.89C310.191 366.81 310.091 369.04 309.021 370.87L286.141 410.19C284.781 412.52 282.121 413.77 279.451 413.31C277.601 412.99 275.971 411.88 274.991 410.26L206.151 295.72C204.941 293.71 204.921 291.2 206.081 289.16L314.121 100.7C316.611 96.3698 322.851 96.3598 325.341 100.69L426.571 276.04C429.061 280.36 425.951 285.75 420.961 285.75H361.481C359.121 285.75 356.951 284.47 355.811 282.41H355.821V282.42Z" fill="white"/>
<path d="M230.939 376.22L199.389 433.82C197.029 438.14 200.149 443.4 205.069 443.4H281.919C284.169 443.4 286.259 442.23 287.429 440.3L324.739 379.4C325.909 377.48 327.999 376.3 330.249 376.3H377.919C382.989 376.3 386.089 381.86 383.429 386.17L314.609 497.75C313.439 499.66 311.349 500.82 309.099 500.82H94.2793C89.2893 500.82 86.1893 495.42 88.6693 491.11L188.629 317.98C191.089 313.7 197.249 313.65 199.789 317.9L230.809 369.78C231.979 371.75 232.029 374.19 230.929 376.21H230.939V376.22Z" fill="white"/>
</svg>
